HIERARCHY
ROOT Hip
{
	OFFSET	0.0000	0.0000	0.0000
	CHANNELS 6 Xposition Yposition Zposition Xrotation Yrotation Zrotation
	JOINT LowerSpine
	{
		OFFSET	0.0000	8.3453	-5.1292
		CHANNELS 3 Xrotation Yrotation Zrotation
		JOINT MiddleSpine
		{
			OFFSET	10.8569	0.0000	0.0000
			CHANNELS 3 Xrotation Yrotation Zrotation
			JOINT Chest
			{
				OFFSET	15.2984	0.0000	0.0000
				CHANNELS 3 Xrotation Yrotation Zrotation
				JOINT Neck
				{
					OFFSET	25.6618	-0.5986	0.0000
					CHANNELS 3 Xrotation Yrotation Zrotation
					JOINT Head
					{
						OFFSET	8.8829	0.0000	0.0000
						CHANNELS 3 Xrotation Yrotation Zrotation
						End Site
						{
							OFFSET	19.7399	0.0000	0.0000
						}
					}
				}
				JOINT RClavicle
				{
					OFFSET	23.6878	0.0000	3.1584
					CHANNELS 3 Xrotation Yrotation Zrotation
					JOINT RShoulder
					{
						OFFSET	-15.5945	-3.9480	0.9870
						CHANNELS 3 Xrotation Yrotation Zrotation
						JOINT RForearm
						{
							OFFSET	-31.3370	0.0000	0.1974
							CHANNELS 3 Xrotation Yrotation Zrotation
							JOINT RHand
							{
								OFFSET	-26.4021	0.0000	0.0000
								CHANNELS 3 Xrotation Yrotation Zrotation
								End Site
								{
									OFFSET	-15.7919	-0.9870	0.0000
								}
							}
						}
					}
				}
				JOINT LClavicle
				{
					OFFSET	23.6878	0.0000	-3.1584
					CHANNELS 3 Xrotation Yrotation Zrotation
					JOINT LShoulder
					{
						OFFSET	-15.5945	-3.9480	-0.9870
						CHANNELS 3 Xrotation Yrotation Zrotation
						JOINT LForearm
						{
							OFFSET	-31.3370	0.0000	-0.1974
							CHANNELS 3 Xrotation Yrotation Zrotation
							JOINT LHand
							{
								OFFSET	-26.4021	0.0000	0.0000
								CHANNELS 3 Xrotation Yrotation Zrotation
								End Site
								{
									OFFSET	-15.7919	-0.9870	0.0000
								}
							}
						}
					}
				}
			}
		}
	}
	JOINT RThigh
	{
		OFFSET	-8.8829	0.4481	0.0000
		CHANNELS 3 Xrotation Yrotation Zrotation
		JOINT RShin
		{
			OFFSET	43.1316	0.0000	-0.4935
			CHANNELS 3 Xrotation Yrotation Zrotation
			JOINT RFoot
			{
				OFFSET	0.0000	-44.7256	-0.4047
				CHANNELS 3 Xrotation Yrotation Zrotation
				JOINT RToe
				{
					OFFSET	0.0000	-3.9332	12.1953
					CHANNELS 3 Xrotation Yrotation Zrotation
					End Site
					{
						OFFSET	6.7725	0.0000	0.0000
					}
				}
			}
		}
	}
	JOINT LThigh
	{
		OFFSET	8.8829	0.4481	0.0000
		CHANNELS 3 Xrotation Yrotation Zrotation
		JOINT LShin
		{
			OFFSET	43.1316	0.0000	0.4935
			CHANNELS 3 Xrotation Yrotation Zrotation
			JOINT LFoot
			{
				OFFSET	0.0000	-44.7256	0.4047
				CHANNELS 3 Xrotation Yrotation Zrotation
				JOINT LToe
				{
					OFFSET	0.0000	-3.9332	-12.1953
					CHANNELS 3 Xrotation Yrotation Zrotation
					End Site
					{
						OFFSET	6.7725	0.0000	0.0000
					}
				}
			}
		}
	}
}
MOTION
Frames:	11
Frame Time: 0.0169491000
	4.2992	92.6086	-4.4119	-5.223519	21.298140	0.409352	-89.999990	-90.000000	0.000000	0.373716	0.017452	-0.403104	1.249045	0.048182	-1.339357	0.000000	0.000000	0.000000	0.000000	0.000000	0.000000	90.029200	-0.741312	-80.023350	25.754770	33.714080	67.512650	2.196756	22.624300	-6.353132	0.000000	0.000000	0.000000	-89.998630	0.030183	-89.594260	67.157860	-31.433380	49.226490	-174.077900	-43.878150	-171.853700	0.000000	0.000000	0.000000	-46.808750	85.110310	-30.487420	89.985210	1.651303	89.998500	-5.666459	-3.049769	-1.294050	176.213300	90.000000	0.000000	-79.504170	85.039660	-4.416154	-89.925810	-8.271054	89.996770	8.988092	-1.841645	0.953166	180.528500	-90.000000	0.000000
	4.3363	92.6118	-4.4211	-5.072450	21.038640	0.371922	-89.999990	-90.000000	0.000000	0.385488	0.020593	-0.359149	1.292956	0.060254	-1.186176	0.000000	0.000000	0.000000	0.000000	0.000000	0.000000	90.029020	-0.740011	-80.040970	25.713260	33.770270	67.528240	2.172471	22.422670	-6.343830	0.000000	0.000000	0.000000	-89.998120	0.043095	-89.420650	67.763910	-31.940880	48.939830	-174.093700	-43.798790	-171.864600	0.000000	0.000000	0.000000	-45.679140	85.166310	-31.814670	89.984070	1.777522	89.998400	-5.815475	-2.523472	-1.082219	176.393300	90.000000	0.000000	-79.049670	85.123310	-4.982509	-89.925040	-8.355249	89.996800	9.036910	-1.536965	0.793930	180.526700	-90.000000	0.000000
	4.3829	92.6078	-4.4367	-4.957586	20.886630	0.358751	-89.999990	-90.000000	0.000000	0.396367	0.025675	-0.328386	1.340680	0.082281	-1.060714	0.000000	0.000000	0.000000	0.000000	0.000000	0.000000	90.027950	-0.731386	-80.157690	25.616780	33.923610	67.663480	2.142087	22.169570	-6.332303	0.000000	0.000000	0.000000	-89.997680	0.055228	-89.257610	68.254680	-32.279830	48.876060	-174.095300	-43.790470	-171.865700	0.000000	0.000000	0.000000	-44.660870	85.209610	-32.995190	89.982990	1.897440	89.998310	-5.970802	-2.241122	-0.974258	176.576100	90.000000	0.000000	-78.692140	85.200650	-5.384332	-89.925280	-8.329714	89.996800	9.137665	-1.479395	0.767557	180.412500	-90.000000	0.000000
	4.4350	92.5960	-4.4497	-4.878663	20.792900	0.350111	-89.999990	-90.000000	0.000000	0.417195	0.037693	-0.285654	1.385239	0.101706	-0.958716	0.000000	0.000000	0.000000	0.000000	0.000000	0.000000	90.025810	-0.713969	-80.393410	25.543040	34.040320	67.900950	2.139764	22.150190	-6.331428	0.000000	0.000000	0.000000	-89.997400	0.063397	-89.147820	68.701580	-32.466280	49.009440	-174.084100	-43.847230	-171.857900	0.000000	0.000000	0.000000	-43.830420	85.233960	-33.956290	89.981830	2.026514	89.998220	-6.194882	-2.071495	-0.907647	176.909100	90.000000	0.000000	-78.288540	85.262820	-5.748085	-89.926700	-8.171895	89.996750	9.217493	-1.390648	0.729244	180.316900	-90.000000	0.000000
	4.4706	92.5785	-4.4130	-4.877778	20.695810	0.300404	-89.999990	-90.000000	0.000000	0.428917	0.041972	-0.266185	1.415703	0.106911	-0.877109	0.000000	0.000000	0.000000	0.000000	0.000000	0.000000	90.022680	-0.687319	-80.753830	25.487560	34.127530	68.288230	2.162835	22.342500	-6.340163	0.000000	0.000000	0.000000	-89.997340	0.065268	-89.122760	69.118150	-32.545530	49.336540	-174.065800	-43.939200	-171.845200	0.000000	0.000000	0.000000	-43.596820	85.195390	-34.145600	89.982000	2.007002	89.998240	-6.308769	-1.764317	-0.773596	177.159300	90.000000	0.000000	-77.953770	85.224910	-5.912289	-89.928570	-7.963916	89.996700	9.341849	-1.188267	0.630336	180.193400	-90.000000	0.000000
	4.5098	92.5590	-4.3456	-4.954594	20.632330	0.258727	-89.999990	-90.000000	0.000000	0.436642	0.035005	-0.237502	1.420220	0.091775	-0.814643	0.000000	0.000000	0.000000	0.000000	0.000000	0.000000	90.018910	-0.653104	-81.216210	25.399510	34.272810	68.809700	2.184572	22.523210	-6.348459	0.000000	0.000000	0.000000	-89.997480	0.060854	-89.182060	69.366900	-32.518370	49.713890	-174.052200	-44.007610	-171.835800	0.000000	0.000000	0.000000	-43.433890	85.147180	-34.075150	89.983930	1.792147	89.998390	-6.215808	-1.304472	-0.565645	177.087400	90.000000	0.000000	-77.677450	85.153410	-5.962873	-89.929830	-7.824637	89.996670	9.516016	-1.019405	0.544779	180.082000	-90.000000	0.000000
	4.5759	92.5435	-4.2951	-5.053611	20.661660	0.268375	-89.999990	-90.000000	0.000000	0.424779	0.019802	-0.224552	1.389830	0.056782	-0.771675	0.000000	0.000000	0.000000	0.000000	0.000000	0.000000	90.015070	-0.615251	-81.727280	25.212260	34.576590	69.393530	2.178484	22.472650	-6.346129	0.000000	0.000000	0.000000	-89.997770	0.052742	-89.291060	69.422850	-32.403640	50.043500	-174.036100	-44.087800	-171.824700	0.000000	0.000000	0.000000	-42.938320	85.138070	-34.292980	89.986360	1.521299	89.998600	-6.037043	-0.971975	-0.412774	176.825500	90.000000	0.000000	-77.377100	85.140460	-6.106485	-89.930000	-7.805713	89.996670	9.631110	-0.927533	0.499131	180.062900	-90.000000	0.000000
	4.6398	92.5363	-4.2532	-5.140990	20.740260	0.268254	-89.999990	-90.000000	0.000000	0.396168	-0.000925	-0.217996	1.322340	0.006591	-0.749166	0.000000	0.000000	0.000000	0.000000	0.000000	0.000000	90.011680	-0.578723	-82.219980	24.903380	35.066040	69.973990	2.136037	22.119070	-6.330026	0.000000	0.000000	0.000000	-89.998060	0.044526	-89.401490	69.468640	-32.319640	50.363840	-174.016200	-44.187480	-171.810700	0.000000	0.000000	0.000000	-42.786060	85.105150	-34.203950	89.988420	1.290592	89.998790	-5.834583	-0.967663	-0.405651	176.529800	90.000000	0.000000	-77.164160	85.125810	-6.194902	-89.930240	-7.779849	89.996660	9.630469	-0.866682	0.472921	180.072500	-90.000000	0.000000
	4.6631	92.5327	-4.2131	-5.197075	20.790100	0.202167	-89.999990	-90.000000	0.000000	0.368538	-0.015364	-0.220446	1.224161	-0.053092	-0.746966	0.000000	0.000000	0.000000	0.000000	0.000000	0.000000	90.009060	-0.547645	-82.638930	24.541660	35.623560	70.478200	2.076323	21.618620	-6.307783	0.000000	0.000000	0.000000	-89.998290	0.038732	-89.479390	69.597760	-32.335520	50.632680	-174.000000	-44.268260	-171.799400	0.000000	0.000000	0.000000	-43.444080	85.002800	-33.394720	89.989580	1.161811	89.998900	-5.671838	-1.161438	-0.485916	176.311200	90.000000	0.000000	-77.104480	85.038820	-6.142162	-89.930730	-7.725487	89.996640	9.628849	-0.821450	0.455162	180.052100	-90.000000	0.000000
	4.6511	92.5252	-4.1960	-5.207570	20.821260	0.088321	-89.999990	-90.000000	0.000000	0.334121	-0.033628	-0.226699	1.108685	-0.116328	-0.761833	0.000000	0.000000	0.000000	0.000000	0.000000	0.000000	90.007210	-0.524019	-82.957270	24.216710	36.113180	70.839030	2.021784	21.158480	-6.287893	0.000000	0.000000	0.000000	-89.998410	0.035572	-89.521890	69.749780	-32.414010	50.705570	-173.990900	-44.313190	-171.793100	0.000000	0.000000	0.000000	-44.540150	84.866190	-32.279260	89.989460	1.174552	89.998890	-5.628919	-1.376410	-0.579825	176.235700	90.000000	0.000000	-77.149480	84.897130	-6.036216	-89.931270	-7.664643	89.996640	9.680072	-0.841412	0.470625	180.024600	-90.000000	0.000000
	4.6526	92.5152	-4.2037	-5.194700	20.887990	-0.006400	-89.999990	-90.000000	0.000000	0.304407	-0.049669	-0.234614	0.992117	-0.175171	-0.786598	0.000000	0.000000	0.000000	0.000000	0.000000	0.000000	90.006020	-0.507822	-83.175410	23.995770	36.449390	71.033270	1.986701	20.860950	-6.275314	0.000000	0.000000	0.000000	-89.998590	0.031144	-89.581420	69.842630	-32.467950	50.624210	-173.978700	-44.373610	-171.784600	0.000000	0.000000	0.000000	-45.325150	84.768110	-31.541650	89.988700	1.258865	89.998830	-5.660260	-1.494048	-0.638384	176.221500	90.000000	0.000000	-77.173900	84.780810	-5.976981	-89.932270	-7.554966	89.996620	9.687761	-0.987658	0.555324	180.011300	-90.000000	0.000000
